# xmcd
#
# Track frame offsets: 
#        182
#        18862
#        40665
#        61097
#        82517
#        104225
#        124210
#        148925
#        168200
#        195170
#
# Disc length: 2896 seconds
#
# Revision: 9
# Processed by: cddbd v1.5.2PL0 Copyright (c) Steve Scherf et al.
# Submitted via: ExactAudioCopy v1.3
#
DISCID=760b4e0a
DTITLE=The Isley Brothers - Mission to Please
DYEAR=1996
DGENRE=Rhythm and Blues
TTITLE0=Floatin' on Your Love
TTITLE1=Whenever You're Ready
TTITLE2=Let's Lay Together
TTITLE3=Tears
TTITLE4=Can I Have a Kiss (For Old Times' Sake)?
TTITLE5=Mission to Please You
TTITLE6=Holding Back the Years
TTITLE7=Make Your Body Sing
TTITLE8=Let's Get Intimate
TTITLE9=Slow is the Way
EXTD=YEAR: 1996
EXTT0=
EXTT1=
EXTT2=
EXTT3=
EXTT4=
EXTT5=
EXTT6=
EXTT7=
EXTT8=
EXTT9=
PLAYORDER=
